<svg width="65" height="65" viewBox="0 0 65 65" fill="none" xmlns="http://www.w3.org/2000/svg">
<g clip-path="url(#clip0_125_289)">
<path d="M48.75 16.25C48.7499 20.5598 47.0379 24.693 43.9904 27.7404C40.943 30.7879 36.8098 32.4999 32.5 32.5C32.4999 28.1903 30.7879 24.057 27.7404 21.0096C24.693 17.9621 20.5598 16.2501 16.25 16.25C16.25 11.9402 17.962 7.80698 21.0095 4.75951C24.057 1.71205 28.1902 0 32.5 0C36.8098 0 40.943 1.71205 43.9905 4.75951C47.0379 7.80698 48.75 11.9402 48.75 16.25Z" fill="#FFC94B"/>
<path d="M32.5 32.5C28.1903 32.5001 24.057 34.2121 21.0096 37.2596C17.9621 40.307 16.2501 44.4403 16.25 48.75C13.0361 48.75 9.89429 47.797 7.22199 46.0114C4.54969 44.2258 2.46689 41.6879 1.23696 38.7186C0.0070408 35.7493 -0.314763 32.482 0.312247 29.3298C0.939256 26.1776 2.48692 23.2821 4.75952 21.0095C7.03212 18.7369 9.9276 17.1893 13.0798 16.5622C16.232 15.9352 19.4993 16.257 22.4686 17.487C25.4379 18.7169 27.9758 20.7997 29.7614 23.472C31.547 26.1443 32.5 29.2861 32.5 32.5Z" fill="#FF7F1D"/>
<path d="M48.75 48.75C48.75 51.9639 47.797 55.1057 46.0114 57.778C44.2258 60.4503 41.6879 62.5331 38.7186 63.763C35.7493 64.993 32.482 65.3148 29.3298 64.6878C26.1776 64.0608 23.2821 62.5131 21.0095 60.2405C18.7369 57.9679 17.1893 55.0724 16.5622 51.9202C15.9352 48.768 16.257 45.5007 17.487 42.5314C18.7169 39.5621 20.7997 37.0242 23.472 35.2386C26.1443 33.453 29.2861 32.5 32.5 32.5C32.5001 36.8098 34.2121 40.943 37.2596 43.9904C40.307 47.0379 44.4403 48.7499 48.75 48.75Z" fill="#7A3DBF"/>
<path d="M65 32.5C65 36.8098 63.288 40.943 60.2405 43.9905C57.193 47.0379 53.0598 48.75 48.75 48.75C44.4402 48.75 40.307 47.0379 37.2595 43.9905C34.2121 40.943 32.5 36.8098 32.5 32.5C36.8098 32.4999 40.943 30.7879 43.9904 27.7404C47.0379 24.693 48.7499 20.5598 48.75 16.25C53.0598 16.25 57.193 17.962 60.2405 21.0095C63.288 24.057 65 28.1902 65 32.5Z" fill="white"/>
</g>
<defs>
<clipPath id="clip0_125_289">
<rect width="65" height="65" fill="white"/>
</clipPath>
</defs>
</svg>
